<svg width="302" height="463" viewBox="0 0 302 463" fill="none" xmlns="http://www.w3.org/2000/svg">
<path d="M54.6498 46.6035C53.8887 41.8648 50.1351 38.1113 45.3965 37.3502C43.965 37.1203 42.497 37 41 37C39.503 37 38.035 37.1203 36.6035 37.3502C31.8649 38.1113 28.1113 41.8648 27.3502 46.6035C27.1203 48.0349 27 49.5029 27 51C27 52.4971 27.1203 53.9651 27.3502 55.3965C28.1113 60.1352 31.8649 63.8887 36.6035 64.6498C38.035 64.8797 39.503 65 41 65C42.497 65 43.965 64.8797 45.3965 64.6498C50.1351 63.8887 53.8887 60.1352 54.6498 55.3965C54.8796 53.9651 55 52.4971 55 51C55 49.5029 54.8796 48.0349 54.6498 46.6035Z" fill="url(#paint0_linear_3540_19298)"/>
<path d="M44.1494 54.4998C44.1494 55.3282 43.4779 55.9998 42.6495 55.9998H36.1494C34.4926 55.9998 33.1494 54.6567 33.1494 52.9998V47.4997C33.1494 46.6713 33.821 45.9998 34.6494 45.9998H41.1494C42.8063 45.9998 44.1494 47.3429 44.1494 48.9998V54.4998V54.4998ZM47.9495 46.8997L45.7495 48.5497C45.3718 48.833 45.1495 49.2776 45.1495 49.7498V52.2498C45.1495 52.7219 45.3718 53.1665 45.7495 53.4497L47.9495 55.0997C48.4439 55.4706 49.1494 55.1178 49.1494 54.4997V47.4997C49.1494 46.8817 48.4438 46.5289 47.9495 46.8997V46.8997Z" fill="url(#paint1_linear_3540_19298)"/>
<path d="M54.6498 119.603C53.8887 114.865 50.1351 111.111 45.3965 110.35C43.965 110.12 42.497 110 41 110C39.503 110 38.035 110.12 36.6035 110.35C31.8649 111.111 28.1113 114.865 27.3502 119.603C27.1203 121.035 27 122.503 27 124C27 125.497 27.1203 126.965 27.3502 128.397C28.1113 133.135 31.8649 136.889 36.6035 137.65C38.035 137.88 39.503 138 41 138C42.497 138 43.965 137.88 45.3965 137.65C50.1351 136.889 53.8887 133.135 54.6498 128.397C54.8796 126.965 55 125.497 55 124C55 122.503 54.8796 121.035 54.6498 119.603Z" fill="url(#paint2_linear_3540_19298)"/>
<path d="M42.2412 116H35.2412C34.1367 116 33.2412 116.895 33.2412 118V122C33.2412 123.105 34.1366 124 35.2412 124H35.2413V125.999C35.2413 126.444 35.7798 126.668 36.0948 126.353L38.008 124.439C38.2893 124.158 38.6709 124 39.0687 124H42.2413C43.3458 124 44.2413 123.105 44.2413 122V118C44.2413 116.895 43.3459 116 42.2413 116H42.2412ZM49.2412 123.5V127.5C49.2412 128.604 48.3458 129.5 47.2412 129.5H47.2412V131.499C47.2412 131.944 46.7026 132.167 46.3876 131.853L44.4744 129.939C44.1931 129.658 43.8116 129.5 43.4138 129.5H40.2412C39.1367 129.5 38.2412 128.605 38.2412 127.5V126.059C38.2412 125.778 38.3528 125.509 38.5514 125.31C38.75 125.112 39.0193 125 39.3002 125H42.2412C43.898 125 45.2412 123.657 45.2412 122V121.5H47.2412C48.3458 121.5 49.2412 122.395 49.2412 123.5V123.5Z" fill="url(#paint3_linear_3540_19298)"/>
<path d="M54.6498 190.603C53.8887 185.865 50.1351 182.111 45.3965 181.35C43.965 181.12 42.497 181 41 181C39.503 181 38.035 181.12 36.6035 181.35C31.8649 182.111 28.1113 185.865 27.3502 190.603C27.1203 192.035 27 193.503 27 195C27 196.497 27.1203 197.965 27.3502 199.397C28.1113 204.135 31.8649 207.889 36.6035 208.65C38.035 208.88 39.503 209 41 209C42.497 209 43.965 208.88 45.3965 208.65C50.1351 207.889 53.8887 204.135 54.6498 199.397C54.8796 197.965 55 196.497 55 195C55 193.503 54.8796 192.035 54.6498 190.603Z" fill="url(#paint4_linear_3540_19298)"/>
<path d="M46.2501 196.312H45.2246C44.7606 196.312 44.3156 196.497 43.9875 196.825L43.0694 197.743C42.8845 197.928 42.6037 197.994 42.3622 197.893C40.4395 197.096 38.9044 195.56 38.1065 193.638C38.0063 193.396 38.072 193.116 38.2568 192.931L39.1749 192.012C39.5031 191.684 39.6874 191.239 39.6874 190.775V189.75C39.6874 188.783 38.9039 188 37.9374 188H36.625C35.1752 188 34 189.175 34 190.625C34 196.901 39.0821 201.989 45.3553 202C46.8091 202.002 47.9999 200.829 47.9999 199.375V198.062C47.9999 197.096 47.2165 196.312 46.2499 196.312L46.2501 196.312Z" fill="url(#paint5_linear_3540_19298)"/>
<path d="M54.6498 262.603C53.8887 257.865 50.1351 254.111 45.3965 253.35C43.965 253.12 42.497 253 41 253C39.503 253 38.035 253.12 36.6035 253.35C31.8649 254.111 28.1113 257.865 27.3502 262.603C27.1203 264.035 27 265.503 27 267C27 268.497 27.1203 269.965 27.3502 271.397C28.1113 276.135 31.8649 279.889 36.6035 280.65C38.035 280.88 39.503 281 41 281C42.497 281 43.965 280.88 45.3965 280.65C50.1351 279.889 53.8887 276.135 54.6498 271.397C54.8796 269.965 55 268.497 55 267C55 265.503 54.8796 264.035 54.6498 262.603Z" fill="url(#paint6_linear_3540_19298)"/>
<path d="M41.4923 270.711L40.2563 271.329C39.7035 271.605 39.7035 272.394 40.2563 272.671L41.4923 273.289C41.7701 273.428 42.0763 273.5 42.3868 273.5H47.8417C48.394 273.5 48.8418 273.052 48.8418 272.5V271.5C48.8418 270.947 48.394 270.5 47.8417 270.5H42.3868C42.0763 270.5 41.7701 270.572 41.4923 270.711V270.711ZM48.8418 262.5V269.499H42.3868C41.9235 269.499 41.4597 269.609 41.0453 269.816L39.8092 270.434C39.2126 270.732 38.8419 271.332 38.8418 271.999V272.5H34.8418C33.7373 272.5 32.8418 271.604 32.8418 270.5V262.5C32.8418 261.395 33.7373 260.5 34.8418 260.5H46.8418C47.9463 260.5 48.8418 261.395 48.8418 262.5L48.8418 262.5Z" fill="url(#paint7_linear_3540_19298)"/>
<path d="M126.65 262.603C125.889 257.865 122.135 254.111 117.397 253.35C115.965 253.12 114.497 253 113 253C111.503 253 110.035 253.12 108.604 253.35C103.865 254.111 100.111 257.865 99.3503 262.603C99.1204 264.035 99 265.503 99 267C99 268.497 99.1204 269.965 99.3503 271.397C100.111 276.135 103.865 279.889 108.604 280.65C110.035 280.88 111.503 281 113 281C114.497 281 115.965 280.88 117.397 280.65C122.135 279.889 125.889 276.135 126.65 271.397C126.88 269.965 127 268.497 127 267C127 265.503 126.88 264.035 126.65 262.603Z" fill="url(#paint8_linear_3540_19298)"/>
<path d="M119.009 261.008H107.009C105.906 261.008 105.009 261.906 105.009 263.008V271.008C105.009 272.111 105.906 273.008 107.009 273.008H119.009C120.112 273.008 121.009 272.111 121.009 271.008V263.008C121.009 261.906 120.112 261.008 119.009 261.008ZM110.009 263.508H110.509C110.785 263.508 111.009 263.732 111.009 264.008C111.009 264.285 110.785 264.508 110.509 264.508H110.009C109.732 264.508 109.509 264.285 109.509 264.008C109.509 263.732 109.732 263.508 110.009 263.508ZM107.509 263.508H108.009C108.285 263.508 108.509 263.732 108.509 264.008C108.509 264.285 108.285 264.508 108.009 264.508H107.509C107.232 264.508 107.009 264.285 107.009 264.008C107.009 263.732 107.232 263.508 107.509 263.508ZM107.509 266.508H113.509C113.785 266.508 114.009 266.732 114.009 267.008C114.009 267.285 113.785 267.508 113.509 267.508H107.509C107.232 267.508 107.009 267.285 107.009 267.008C107.009 266.732 107.232 266.508 107.509 266.508ZM108.009 270.508H107.509C107.232 270.508 107.009 270.285 107.009 270.008C107.009 269.732 107.232 269.508 107.509 269.508H108.009C108.285 269.508 108.509 269.732 108.509 270.008C108.509 270.285 108.285 270.508 108.009 270.508ZM116.009 270.508H110.009C109.732 270.508 109.509 270.285 109.509 270.008C109.509 269.732 109.732 269.508 110.009 269.508H116.009C116.285 269.508 116.509 269.732 116.509 270.008C116.509 270.285 116.285 270.508 116.009 270.508ZM116.009 267.508H115.509C115.232 267.508 115.009 267.285 115.009 267.008C115.009 266.732 115.232 266.508 115.509 266.508H116.009C116.285 266.508 116.509 266.732 116.509 267.008C116.509 267.285 116.285 267.508 116.009 267.508ZM118.509 270.508H118.009C117.732 270.508 117.509 270.285 117.509 270.008C117.509 269.732 117.732 269.508 118.009 269.508H118.509C118.785 269.508 119.009 269.732 119.009 270.008C119.009 270.285 118.785 270.508 118.509 270.508ZM118.509 267.508H118.009C117.732 267.508 117.509 267.285 117.509 267.008C117.509 266.732 117.732 266.508 118.009 266.508H118.509C118.785 266.508 119.009 266.732 119.009 267.008C119.009 267.285 118.785 267.508 118.509 267.508ZM118.509 264.508H112.509C112.232 264.508 112.009 264.285 112.009 264.008C112.009 263.732 112.232 263.508 112.509 263.508H118.509C118.785 263.508 119.009 263.732 119.009 264.008C119.009 264.285 118.785 264.508 118.509 264.508Z" fill="url(#paint9_linear_3540_19298)"/>
<path d="M54.6498 334.603C53.8887 329.865 50.1351 326.111 45.3965 325.35C43.965 325.12 42.497 325 41 325C39.503 325 38.035 325.12 36.6035 325.35C31.8649 326.111 28.1113 329.865 27.3502 334.603C27.1203 336.035 27 337.503 27 339C27 340.497 27.1203 341.965 27.3502 343.397C28.1113 348.135 31.8649 351.889 36.6035 352.65C38.035 352.88 39.503 353 41 353C42.497 353 43.965 352.88 45.3965 352.65C50.1351 351.889 53.8887 348.135 54.6498 343.397C54.8797 341.965 55 340.497 55 339C55 337.503 54.8797 336.035 54.6498 334.603Z" fill="url(#paint10_linear_3540_19298)"/>
<path d="M48.9969 336.299V343.025C48.9969 344.127 48.0986 345.026 46.9961 345.026H34.9969C33.8944 345.026 32.9961 344.127 32.9961 343.025V336.299L38.8353 340.884C39.4711 341.385 40.2353 341.636 40.9994 341.636C41.7636 341.636 42.5278 341.385 43.1636 340.884L49.0028 336.299H48.9969ZM39.4536 340.096C40.3636 340.814 41.6353 340.814 42.5453 340.096L49.0028 335.021C49.0028 333.919 48.1044 333.021 47.0019 333.021H34.9969C33.8944 333.021 32.9961 333.919 32.9961 335.021L39.4536 340.096Z" fill="url(#paint11_linear_3540_19298)"/>
<path d="M126.65 334.603C125.889 329.865 122.135 326.111 117.397 325.35C115.965 325.12 114.497 325 113 325C111.503 325 110.035 325.12 108.604 325.35C103.865 326.111 100.111 329.865 99.3503 334.603C99.1204 336.035 99 337.503 99 339C99 340.497 99.1204 341.965 99.3503 343.397C100.111 348.135 103.865 351.889 108.604 352.65C110.035 352.88 111.503 353 113 353C114.497 353 115.965 352.88 117.397 352.65C122.135 351.889 125.889 348.135 126.65 343.397C126.88 341.965 127 340.497 127 339C127 337.503 126.88 336.035 126.65 334.603Z" fill="url(#paint12_linear_3540_19298)"/>
<path d="M116.687 335.313C115.948 332.888 113.7 331.125 111.033 331.125C107.77 331.125 105.125 333.77 105.125 337.033C105.125 339.7 106.888 341.948 109.313 342.687C110.052 345.112 112.3 346.875 114.967 346.875C118.23 346.875 120.875 344.23 120.875 340.967C120.875 338.3 119.112 336.052 116.687 335.313ZM116.94 340.471C116.94 341.827 115.838 342.929 114.482 342.929H111.529C110.173 342.929 109.071 341.827 109.071 340.471V337.518C109.071 336.162 110.173 335.06 111.529 335.06H114.482C115.838 335.06 116.94 336.162 116.94 337.518V340.471ZM113.006 337.022C113.546 337.022 113.986 337.462 113.986 338.003C113.986 338.543 113.546 338.983 113.006 338.983C112.465 338.983 112.025 338.543 112.025 338.003C112.025 337.462 112.465 337.022 113.006 337.022ZM114.24 340.967H111.782C111.54 340.967 111.286 340.747 111.286 340.471C111.286 339.931 112.025 339.49 113.006 339.49C113.986 339.49 114.725 339.931 114.725 340.471C114.725 340.747 114.471 340.967 114.24 340.967Z" fill="#0D213F"/>
<path d="M198.65 118.603C197.889 113.865 194.135 110.111 189.396 109.35C187.965 109.12 186.497 109 185 109C183.503 109 182.035 109.12 180.604 109.35C175.865 110.111 172.111 113.865 171.35 118.603C171.12 120.035 171 121.503 171 123C171 124.497 171.12 125.965 171.35 127.397C172.111 132.135 175.865 135.889 180.604 136.65C182.035 136.88 183.503 137 185 137C186.497 137 187.965 136.88 189.396 136.65C194.135 135.889 197.889 132.135 198.65 127.397C198.88 125.965 199 124.497 199 123C199 121.503 198.88 120.035 198.65 118.603Z" fill="url(#paint13_linear_3540_19298)"/>
<path d="M192.589 121.573C192.589 121.573 192.989 121.323 192.989 121.072V118.768C192.989 117.917 192.338 117.265 191.487 117.265H178.513C177.662 117.265 177.011 117.917 177.011 118.768V121.072C177.011 121.072 177.211 121.473 177.411 121.573C178.063 121.723 178.513 122.324 178.513 123.026C178.513 123.727 178.063 124.278 177.411 124.478C177.211 124.528 177.011 124.729 177.011 124.979V127.283C177.011 128.135 177.662 128.786 178.513 128.786H191.487C192.338 128.786 192.989 128.135 192.989 127.283V124.979C192.989 124.979 192.789 124.578 192.589 124.478C191.937 124.328 191.487 123.727 191.487 123.026C191.487 122.324 191.937 121.773 192.589 121.573ZM183.172 120.02C184.023 120.02 184.674 120.671 184.674 121.523C184.674 122.375 184.023 123.026 183.172 123.026C182.32 123.026 181.669 122.375 181.669 121.523C181.669 120.671 182.32 120.02 183.172 120.02ZM185.125 126.031H181.218C180.818 126.031 180.417 125.68 180.417 125.28C180.417 124.428 181.619 123.777 183.172 123.777C184.725 123.777 185.927 124.428 185.927 125.28C185.927 125.68 185.526 126.031 185.125 126.031V126.031ZM185.927 122.274C185.927 121.573 186.478 121.022 187.179 121.022C187.88 121.022 188.431 121.573 188.431 122.274C188.431 122.976 187.88 123.527 187.179 123.527C186.478 123.527 185.927 122.976 185.927 122.274ZM188.832 126.031H186.728C186.728 126.031 186.928 125.53 186.928 125.28C186.928 124.879 186.828 124.528 186.578 124.228C186.778 124.228 186.979 124.178 187.229 124.178C188.531 124.178 189.533 124.729 189.533 125.43C189.533 125.781 189.182 126.031 188.882 126.031H188.832Z" fill="url(#paint14_linear_3540_19298)"/>
<path d="M126.65 46.6035C125.889 41.8648 122.135 38.1113 117.396 37.3502C115.965 37.1203 114.497 37 113 37C111.503 37 110.035 37.1203 108.604 37.3502C103.865 38.1113 100.111 41.8648 99.3502 46.6035C99.1203 48.0349 99 49.5029 99 51C99 52.4971 99.1203 53.9651 99.3502 55.3965C100.111 60.1352 103.865 63.8887 108.604 64.6498C110.035 64.8797 111.503 65 113 65C114.497 65 115.965 64.8797 117.396 64.6498C122.135 63.8887 125.889 60.1352 126.65 55.3965C126.88 53.9651 127 52.4971 127 51C127 49.5029 126.88 48.0349 126.65 46.6035Z" fill="url(#paint15_linear_3540_19298)"/>
<path d="M109 51.4998H116.999C118.104 51.4998 118.999 50.6042 118.999 49.4997V45.5C118.999 44.3955 118.104 43.5 116.999 43.5H109C107.895 43.5 107 44.3955 107 45.5V49.4997C107 50.6042 107.895 51.4998 109 51.4998ZM113 44.75C113.79 44.75 114.428 45.3897 114.428 46.1785C114.428 46.9673 113.79 47.6072 113 47.6072C112.211 47.6072 111.571 46.9676 111.571 46.1785C111.571 45.3894 112.212 44.75 113 44.75ZM112.999 48.1101C114.428 48.1101 115.499 48.7498 115.499 49.5386C115.499 49.9331 115.13 50.2529 114.785 50.2529H111.213C110.868 50.2529 110.499 49.9331 110.499 49.5386C110.499 48.7498 111.57 48.1101 112.999 48.1101H112.999ZM119.512 54.3294L120.399 57.8787C120.467 58.1463 120.304 58.4177 120.036 58.4851C119.995 58.4949 119.954 58.4998 119.914 58.4998C119.69 58.4998 119.486 58.3484 119.43 58.1208L118.524 54.4997H116.5C115.949 54.4997 115.5 54.948 115.5 55.4997V57.9997C115.5 58.2761 115.276 58.4997 115 58.4997C114.724 58.4997 114.5 58.2761 114.5 57.9997V55.4997C114.5 54.3972 115.397 53.4997 116.5 53.4997H118.914C119.029 53.4997 119.129 53.4226 119.157 53.3113L120.015 49.8786C120.082 49.6101 120.354 49.448 120.621 49.5144C120.889 49.5818 121.052 49.8532 120.985 50.1208L120.127 53.5535C120.04 53.8994 119.807 54.166 119.512 54.3294L119.512 54.3294ZM111.5 55.4998V57.9998C111.5 58.2762 111.276 58.4998 111 58.4998C110.724 58.4998 110.5 58.2761 110.5 57.9998V55.4998C110.5 54.948 110.051 54.4998 109.5 54.4998H107.476L106.57 58.1209C106.514 58.3485 106.31 58.4998 106.086 58.4998C106.046 58.4998 106.005 58.4949 105.964 58.4852C105.696 58.4178 105.533 58.1463 105.601 57.8788L106.488 54.3295C106.193 54.1659 105.96 53.8995 105.874 53.5536L105.015 50.1209C104.948 49.8534 105.111 49.5819 105.379 49.5145C105.646 49.4491 105.918 49.6102 105.985 49.8787L106.843 53.3114C106.871 53.4227 106.971 53.4998 107.086 53.4998H109.5C110.603 53.4998 111.5 54.3973 111.5 55.4999L111.5 55.4998Z" fill="url(#paint16_linear_3540_19298)"/>
<path d="M126.65 118.603C125.889 113.865 122.135 110.111 117.397 109.35C115.965 109.12 114.497 109 113 109C111.503 109 110.035 109.12 108.604 109.35C103.865 110.111 100.111 113.865 99.3503 118.603C99.1204 120.035 99 121.503 99 123C99 124.497 99.1204 125.965 99.3503 127.397C100.111 132.135 103.865 135.889 108.604 136.65C110.035 136.88 111.503 137 113 137C114.497 137 115.965 136.88 117.397 136.65C122.135 135.889 125.889 132.135 126.65 127.397C126.88 125.965 127 124.497 127 123C127 121.503 126.88 120.035 126.65 118.603Z" fill="url(#paint17_linear_3540_19298)"/>
<path fill-rule="evenodd" clip-rule="evenodd" d="M105 129.5C105 130.328 105.672 131 106.5 131C107.152 131 107.702 130.581 107.908 130H112C112.828 130 113.5 129.328 113.5 128.5V126.999H117C118.105 126.999 119 126.104 119 124.999V121C119 119.895 118.105 119 117 119H113.5V117.499C113.5 117.223 113.724 116.999 114 116.999H118.092C118.298 117.581 118.848 117.999 119.5 117.999C120.328 117.999 121 117.328 121 116.5C121 115.671 120.328 115 119.5 115C118.848 115 118.298 115.418 118.092 115.999H114C113.172 115.999 112.5 116.671 112.5 117.499V119H109C107.895 119 107 119.895 107 121V124.999C107 126.104 107.895 126.999 109 126.999H112.5V128.5C112.5 128.776 112.276 129 112 129H107.908C107.702 128.418 107.152 128 106.5 128C105.672 128 105 128.671 105 129.5V129.5ZM119 116.5V116.499C119 116.223 119.224 116 119.5 116C119.776 116 120 116.223 120 116.5C120 116.776 119.776 117 119.5 117C119.224 117 119 116.776 119 116.5V116.5ZM106 129.5C106 129.224 106.224 129 106.5 129C106.776 129 107 129.223 107 129.499V129.5C107 129.776 106.776 130 106.5 130C106.224 130 106 129.776 106 129.5V129.5ZM113.001 123.107C113.79 123.107 114.429 122.467 114.429 121.678C114.429 120.889 113.79 120.25 113.001 120.25C112.212 120.25 111.572 120.89 111.572 121.678C111.572 122.467 112.212 123.107 113.001 123.107ZM113 123.61C111.571 123.61 110.5 124.25 110.5 125.038C110.5 125.433 110.869 125.753 111.214 125.753H114.786C115.131 125.753 115.5 125.433 115.5 125.038C115.5 124.25 114.429 123.61 113 123.61Z" fill="url(#paint18_linear_3540_19298)"/>
<path d="M126.65 190.602C125.892 185.865 122.135 182.108 117.398 181.35C115.969 181.123 114.499 181 113 181C111.501 181 110.037 181.123 108.602 181.35C103.865 182.108 100.108 185.865 99.35 190.602C99.1225 192.031 99 193.501 99 195C99 196.499 99.1225 197.963 99.35 199.398C100.108 204.135 103.865 207.892 108.602 208.65C110.031 208.877 111.501 209 113 209C114.499 209 115.963 208.877 117.398 208.65C122.135 207.892 125.892 204.135 126.65 199.398C126.877 197.969 127 196.499 127 195C127 193.501 126.877 192.037 126.65 190.602V190.602Z" fill="url(#paint19_linear_3540_19298)"/>
<path d="M119.999 193.996H114.499C113.944 193.996 113.501 194.446 113.501 194.994V197.992C113.501 198.546 113.95 198.99 114.499 198.99H119.999C120.554 198.99 120.997 198.541 120.997 197.992V194.994C120.997 194.44 120.548 193.996 119.999 193.996ZM111.5 193.996H105.999C105.445 193.996 105.002 194.446 105.002 194.994V197.992C105.002 198.546 105.451 198.99 105.999 198.99H106.524C106.799 198.99 107.026 198.768 107.026 198.488C107.026 198.208 106.804 197.986 106.524 197.986H105.999V194.988H111.5V197.619C111.5 197.893 111.722 198.121 112.002 198.121C112.282 198.121 112.504 197.899 112.504 197.619V194.988C112.504 194.434 112.054 193.991 111.506 193.991L111.5 193.996ZM111.5 187.994H105.999C105.445 187.994 105.002 188.443 105.002 188.991V191.99C105.002 192.544 105.451 192.987 105.999 192.987H111.5C112.054 192.987 112.498 192.538 112.498 191.99V188.991C112.498 188.437 112.049 187.994 111.5 187.994ZM119.999 187.994H114.499C113.944 187.994 113.501 188.443 113.501 188.991V191.99C113.501 192.544 113.95 192.987 114.499 192.987H119.999C120.554 192.987 120.997 192.538 120.997 191.99V188.991C120.997 188.437 120.548 187.994 119.999 187.994ZM111.938 198.949C111.629 198.949 111.378 199.2 111.378 199.509V198.949C111.378 198.64 111.127 198.389 110.818 198.389C110.509 198.389 110.258 198.64 110.258 198.949V198.669C110.258 198.36 110.007 198.109 109.698 198.109C109.389 198.109 109.138 198.36 109.138 198.669V196.703C109.138 196.394 108.887 196.143 108.578 196.143C108.269 196.143 108.018 196.394 108.018 196.703V199.923C108.018 200.098 107.919 200.238 107.767 200.32C107.609 200.401 107.434 200.366 107.306 200.256C106.781 199.795 106.355 199.526 106.081 199.491C105.784 199.456 105.492 199.602 105.492 199.923C105.492 200.034 105.539 200.127 105.638 200.226C105.877 200.419 106.069 200.594 106.227 200.751C106.688 201.201 107.102 201.72 107.499 202.373C108.117 203.388 109.196 203.995 110.386 203.995C111.576 203.995 112.498 203.05 112.498 201.883V199.509C112.498 199.2 112.247 198.949 111.938 198.949V198.949Z" fill="url(#paint20_linear_3540_19298)"/>
<path d="M198.65 46.6035C197.889 41.8648 194.135 38.1113 189.396 37.3502C187.965 37.1203 186.497 37 185 37C183.503 37 182.035 37.1203 180.604 37.3502C175.865 38.1113 172.111 41.8648 171.35 46.6035C171.12 48.0349 171 49.5029 171 51C171 52.4971 171.12 53.9651 171.35 55.3965C172.111 60.1352 175.865 63.8887 180.604 64.6498C182.035 64.8797 183.503 65 185 65C186.497 65 187.965 64.8797 189.396 64.6498C194.135 63.8887 197.889 60.1352 198.65 55.3965C198.88 53.9651 199 52.4971 199 51C199 49.5029 198.88 48.0349 198.65 46.6035Z" fill="url(#paint21_linear_3540_19298)"/>
<path fill-rule="evenodd" clip-rule="evenodd" d="M192.605 49.5521C192.819 49.4939 193 49.2901 193 49.0683V46.7497C193 45.9213 192.328 45.2498 191.5 45.2498H189.5V46.9998C189.5 47.2759 189.276 47.4997 189 47.4997C188.724 47.4997 188.5 47.2758 188.5 46.9998V45.2498H178.5C177.672 45.2498 177 45.9214 177 46.7497V49.0683C177 49.2901 177.181 49.4939 177.395 49.5521C178.032 49.7255 178.5 50.308 178.5 50.9994C178.5 51.6909 178.032 52.2734 177.395 52.4468C177.181 52.5051 177 52.7088 177 52.9304V55.2497C177 56.0781 177.672 56.7497 178.5 56.7497H188.5V54.9997C188.5 54.7235 188.724 54.4997 189 54.4997C189.276 54.4997 189.5 54.7236 189.5 54.9997V56.7497H191.5C192.328 56.7497 193 56.0781 193 55.2497V52.9304C193 52.7088 192.819 52.5052 192.605 52.4469C191.968 52.2734 191.5 51.6909 191.5 50.9994C191.5 50.308 191.968 49.7254 192.605 49.5521H192.605ZM186.119 50.7683L185.295 51.571C185.178 51.686 185.124 51.8515 185.152 52.0136L185.346 53.1473C185.402 53.4741 185.059 53.7233 184.766 53.569L183.748 53.0336C183.602 52.9572 183.428 52.9572 183.282 53.0336L182.264 53.569C181.971 53.7233 181.628 53.4741 181.684 53.1473L181.878 52.0136C181.906 51.8515 181.852 51.686 181.734 51.571L180.911 50.7683C180.673 50.5368 180.804 50.1335 181.132 50.0859L182.271 49.9205C182.434 49.8969 182.574 49.7946 182.647 49.6469L183.156 48.6154C183.303 48.3183 183.727 48.3183 183.874 48.6154L184.383 49.6469C184.455 49.7946 184.596 49.8969 184.759 49.9205L185.897 50.0859C186.225 50.1335 186.356 50.5368 186.119 50.7683H186.119ZM189.5 52.4995V52.4997C189.5 52.7759 189.276 52.9997 189 52.9997C188.724 52.9997 188.5 52.7758 188.5 52.4997V49.4995C188.5 49.2233 188.724 48.9995 189 48.9995C189.276 48.9995 189.5 49.2234 189.5 49.4995V52.4995Z" fill="url(#paint22_linear_3540_19298)"/>
<path d="M198.65 262.603C197.889 257.865 194.135 254.111 189.396 253.35C187.965 253.12 186.497 253 185 253C183.503 253 182.035 253.12 180.604 253.35C175.865 254.111 172.111 257.865 171.35 262.603C171.12 264.035 171 265.503 171 267C171 268.497 171.12 269.965 171.35 271.397C172.111 276.135 175.865 279.889 180.604 280.65C182.035 280.88 183.503 281 185 281C186.497 281 187.965 280.88 189.396 280.65C194.135 279.889 197.889 276.135 198.65 271.397C198.88 269.965 199 268.497 199 267C199 265.503 198.88 264.035 198.65 262.603Z" fill="url(#paint23_linear_3540_19298)"/>
<path fill-rule="evenodd" clip-rule="evenodd" d="M190 259.011H188.5V258.511C188.5 258.235 188.276 258.011 188 258.011C187.724 258.011 187.5 258.235 187.5 258.511V259.011H182.5V258.511C182.5 258.235 182.276 258.011 182 258.011C181.724 258.011 181.5 258.235 181.5 258.511V259.011H180C178.343 259.011 177 260.354 177 262.011V263.011H193V262.011C193 260.354 191.657 259.011 190 259.011H190ZM182 262.011C181.448 262.011 181 261.563 181 261.011C181 260.645 181.207 260.338 181.5 260.164V261.011C181.5 261.287 181.724 261.511 182 261.511C182.276 261.511 182.5 261.287 182.5 261.011V260.164C182.794 260.338 183 260.645 183 261.011C183 261.563 182.552 262.011 182 262.011H182ZM188 262.011C187.448 262.011 187 261.563 187 261.011C187 260.645 187.207 260.338 187.5 260.164V261.011C187.5 261.287 187.724 261.511 188 261.511C188.276 261.511 188.5 261.287 188.5 261.011V260.164C188.794 260.338 189 260.645 189 261.011C189 261.563 188.552 262.011 188 262.011H188ZM193 264.011H177V271.011C177 272.668 178.343 274.011 180 274.011H190C191.657 274.011 193 272.668 193 271.011V264.011H193ZM184.641 266.127L184.132 267.158C184.059 267.306 183.919 267.408 183.756 267.432L182.618 267.597C182.289 267.645 182.158 268.048 182.396 268.279L183.219 269.082C183.337 269.197 183.391 269.362 183.363 269.525L183.169 270.658C183.113 270.985 183.456 271.234 183.749 271.08L184.767 270.545C184.913 270.468 185.087 270.468 185.233 270.545L186.251 271.08C186.544 271.234 186.887 270.985 186.831 270.658L186.637 269.525C186.609 269.362 186.663 269.197 186.78 269.082L187.604 268.279C187.842 268.048 187.711 267.645 187.382 267.597L186.244 267.432C186.081 267.408 185.941 267.306 185.868 267.158L185.359 266.127C185.212 265.829 184.788 265.829 184.641 266.127H184.641Z" fill="url(#paint24_linear_3540_19298)"/>
<path d="M270.65 46.6035C269.889 41.8648 266.135 38.1113 261.396 37.3502C259.965 37.1203 258.497 37 257 37C255.503 37 254.035 37.1203 252.604 37.3502C247.865 38.1113 244.111 41.8648 243.35 46.6035C243.12 48.0349 243 49.5029 243 51C243 52.4971 243.12 53.9651 243.35 55.3965C244.111 60.1352 247.865 63.8887 252.604 64.6498C254.035 64.8797 255.503 65 257 65C258.497 65 259.965 64.8797 261.396 64.6498C266.135 63.8887 269.889 60.1352 270.65 55.3965C270.88 53.9651 271 52.4971 271 51C271 49.5029 270.88 48.0349 270.65 46.6035Z" fill="url(#paint25_linear_3540_19298)"/>
<path d="M265.001 50.4995C265.001 49.2053 264.009 48.1507 262.748 48.0244C262.008 45.9885 259.713 44.4995 257 44.4995C254.293 44.4995 252 45.9819 251.255 48.0112C249.991 48.1353 249 49.2036 249 50.4995C249 51.8784 250.122 52.9995 251.5 52.9995C251.776 52.9995 252 52.7759 252 52.4995L252 49.4351C252 47.2652 254.244 45.4995 257 45.4995C259.757 45.4995 262 47.2652 262 49.4351V52.4995C262 54.0916 260.618 55.4238 258.744 55.8467C258.56 55.638 258.3 55.4999 258 55.4999H257C256.448 55.4999 256 55.9476 256 56.4999C256 57.0523 256.448 57.4999 257 57.4999H258C258.432 57.4999 258.792 57.223 258.932 56.8396C261.099 56.3604 262.743 54.8263 262.972 52.952C264.126 52.7303 265 51.7169 265 50.4996L265.001 50.4995ZM258 53.4998C259.657 53.4998 261 52.1568 261 50.4997C261 48.8427 259.657 47.4997 258 47.4997H256C254.343 47.4997 253 48.843 253 50.4997C253 51.3848 253.391 52.1721 254 52.7212V54.4987C254 54.9442 254.539 55.1673 254.854 54.8524L256.206 53.4998H258H258Z" fill="url(#paint26_linear_3540_19298)"/>
<path d="M270.65 118.603C269.889 113.865 266.135 110.111 261.396 109.35C259.965 109.12 258.497 109 257 109C255.503 109 254.035 109.12 252.604 109.35C247.865 110.111 244.111 113.865 243.35 118.603C243.12 120.035 243 121.503 243 123C243 124.497 243.12 125.965 243.35 127.397C244.111 132.135 247.865 135.889 252.604 136.65C254.035 136.88 255.503 137 257 137C258.497 137 259.965 136.88 261.396 136.65C266.135 135.889 269.889 132.135 270.65 127.397C270.88 125.965 271 124.497 271 123C271 121.503 270.88 120.035 270.65 118.603Z" fill="url(#paint27_linear_3540_19298)"/>
<path d="M257 114.976C252.865 114.976 249.514 118.327 249.514 122.462C249.514 126.424 252.592 129.667 256.487 129.931C256.773 129.95 257 130.175 257 130.461C257 130.928 257 131.545 257 131.545C257 131.907 257.357 132.178 257.698 132.058C261.648 130.668 264.483 126.893 264.486 122.468C264.486 122.466 264.486 122.464 264.486 122.462C264.486 118.327 261.134 114.976 257 114.976ZM263.417 122.462C263.417 126.006 260.544 128.878 257 128.878C253.456 128.878 250.583 126.006 250.583 122.462C250.583 118.918 253.456 116.045 257 116.045C260.544 116.045 263.417 118.918 263.417 122.462ZM257 126.739C255.808 126.739 254.699 126.254 253.877 125.371C253.677 125.155 253.688 124.816 253.905 124.615C254.122 124.413 254.459 124.426 254.661 124.642C255.894 125.968 258.101 125.966 259.341 124.642C259.541 124.427 259.882 124.415 260.096 124.616C260.312 124.818 260.323 125.156 260.122 125.371C259.299 126.254 258.191 126.739 257 126.739Z" fill="url(#paint28_linear_3540_19298)"/>
<path d="M198.65 190.603C197.889 185.865 194.135 182.111 189.396 181.35C187.965 181.12 186.497 181 185 181C183.503 181 182.035 181.12 180.604 181.35C175.865 182.111 172.111 185.865 171.35 190.603C171.12 192.035 171 193.503 171 195C171 196.497 171.12 197.965 171.35 199.397C172.111 204.135 175.865 207.889 180.604 208.65C182.035 208.88 183.503 209 185 209C186.497 209 187.965 208.88 189.396 208.65C194.135 207.889 197.889 204.135 198.65 199.397C198.88 197.965 199 196.497 199 195C199 193.503 198.88 192.035 198.65 190.603Z" fill="url(#paint29_linear_3540_19298)"/>
<path fill-rule="evenodd" clip-rule="evenodd" d="M190.934 188H178.934C177.829 188 176.934 188.895 176.934 190V200C176.934 201.105 177.829 202 178.934 202H190.934C192.038 202 192.934 201.105 192.934 200V190C192.934 188.895 192.038 188 190.934 188ZM183.434 190.75C183.434 190.336 183.769 190 184.184 190H185.684C186.098 190 186.434 190.336 186.434 190.75V191.25C186.434 191.664 186.098 192 185.684 192H184.184C183.769 192 183.434 191.664 183.434 191.25V190.75ZM178.934 190.75C178.934 190.336 179.269 190 179.684 190H181.184C181.598 190 181.934 190.336 181.934 190.75V191.25C181.934 191.664 181.598 192 181.184 192H179.684C179.269 192 178.934 191.664 178.934 191.25V190.75ZM190.934 199.25C190.934 199.664 190.598 200 190.184 200H179.684C179.269 200 178.934 199.664 178.934 199.25V193.75C178.934 193.336 179.269 193 179.684 193H190.184C190.598 193 190.934 193.336 190.934 193.75V199.25ZM190.934 191.25C190.934 191.664 190.598 192 190.184 192H188.684C188.269 192 187.934 191.664 187.934 191.25V190.75C187.934 190.336 188.269 190 188.684 190H190.184C190.598 190 190.934 190.336 190.934 190.75V191.25Z" fill="url(#paint30_linear_3540_19298)"/>
<defs>
<linearGradient id="paint0_linear_3540_19298" x1="41" y1="64.9999" x2="41" y2="36.9999" gradientUnits="userSpaceOnUse">
<stop offset="0.0006" stop-color="#3061A7"/>
<stop offset="0.0678" stop-color="#3B71C0"/>
<stop offset="0.1421" stop-color="#437FD4"/>
<stop offset="0.2268" stop-color="#4A88E3"/>
<stop offset="0.3294" stop-color="#4D8EEB"/>
<stop offset="0.5" stop-color="#4F90EE"/>
</linearGradient>
<linearGradient id="paint1_linear_3540_19298" x1="39.5258" y1="57.0111" x2="42.6923" y2="45.1936" gradientUnits="userSpaceOnUse">
<stop offset="0.4" stop-color="#0D213F"/>
<stop offset="0.6276" stop-color="#0E2342"/>
<stop offset="0.8103" stop-color="#12294C"/>
<stop offset="0.9769" stop-color="#18355D"/>
<stop offset="1" stop-color="#1A3760"/>
</linearGradient>
<linearGradient id="paint2_linear_3540_19298" x1="41" y1="138" x2="41" y2="110" gradientUnits="userSpaceOnUse">
<stop offset="0.0006" stop-color="#3061A7"/>
<stop offset="0.0678" stop-color="#3B71C0"/>
<stop offset="0.1421" stop-color="#437FD4"/>
<stop offset="0.2268" stop-color="#4A88E3"/>
<stop offset="0.3294" stop-color="#4D8EEB"/>
<stop offset="0.5" stop-color="#4F90EE"/>
</linearGradient>
<linearGradient id="paint3_linear_3540_19298" x1="39.2926" y1="130.022" x2="43.0134" y2="116.136" gradientUnits="userSpaceOnUse">
<stop offset="0.4" stop-color="#0D213F"/>
<stop offset="0.6276" stop-color="#0E2342"/>
<stop offset="0.8103" stop-color="#12294C"/>
<stop offset="0.9769" stop-color="#18355D"/>
<stop offset="1" stop-color="#1A3760"/>
</linearGradient>
<linearGradient id="paint4_linear_3540_19298" x1="41" y1="209" x2="41" y2="181" gradientUnits="userSpaceOnUse">
<stop offset="0.0006" stop-color="#3061A7"/>
<stop offset="0.0678" stop-color="#3B71C0"/>
<stop offset="0.1421" stop-color="#437FD4"/>
<stop offset="0.2268" stop-color="#4A88E3"/>
<stop offset="0.3294" stop-color="#4D8EEB"/>
<stop offset="0.5" stop-color="#4F90EE"/>
</linearGradient>
<linearGradient id="paint5_linear_3540_19298" x1="39.4418" y1="200.814" x2="42.5601" y2="189.176" gradientUnits="userSpaceOnUse">
<stop offset="0.4" stop-color="#0D213F"/>
<stop offset="0.6276" stop-color="#0E2342"/>
<stop offset="0.8103" stop-color="#12294C"/>
<stop offset="0.9769" stop-color="#18355D"/>
<stop offset="1" stop-color="#1A3760"/>
</linearGradient>
<linearGradient id="paint6_linear_3540_19298" x1="41" y1="281" x2="41" y2="253" gradientUnits="userSpaceOnUse">
<stop offset="0.0006" stop-color="#3061A7"/>
<stop offset="0.0678" stop-color="#3B71C0"/>
<stop offset="0.1421" stop-color="#437FD4"/>
<stop offset="0.2268" stop-color="#4A88E3"/>
<stop offset="0.3294" stop-color="#4D8EEB"/>
<stop offset="0.5" stop-color="#4F90EE"/>
</linearGradient>
<linearGradient id="paint7_linear_3540_19298" x1="39.1554" y1="273.727" x2="42.9948" y2="259.398" gradientUnits="userSpaceOnUse">
<stop offset="0.4" stop-color="#0D213F"/>
<stop offset="0.6276" stop-color="#0E2342"/>
<stop offset="0.8103" stop-color="#12294C"/>
<stop offset="0.9769" stop-color="#18355D"/>
<stop offset="1" stop-color="#1A3760"/>
</linearGradient>
<linearGradient id="paint8_linear_3540_19298" x1="113" y1="281" x2="113" y2="253" gradientUnits="userSpaceOnUse">
<stop offset="0.0006" stop-color="#3061A7"/>
<stop offset="0.0678" stop-color="#3B71C0"/>
<stop offset="0.1421" stop-color="#437FD4"/>
<stop offset="0.2268" stop-color="#4A88E3"/>
<stop offset="0.3294" stop-color="#4D8EEB"/>
<stop offset="0.5" stop-color="#4F90EE"/>
</linearGradient>
<linearGradient id="paint9_linear_3540_19298" x1="111.322" y1="273.218" x2="114.627" y2="259.859" gradientUnits="userSpaceOnUse">
<stop offset="0.4" stop-color="#0D213F"/>
<stop offset="0.6276" stop-color="#0E2342"/>
<stop offset="0.8103" stop-color="#12294C"/>
<stop offset="0.9769" stop-color="#18355D"/>
<stop offset="1" stop-color="#1A3760"/>
</linearGradient>
<linearGradient id="paint10_linear_3540_19298" x1="41" y1="353" x2="41" y2="325" gradientUnits="userSpaceOnUse">
<stop offset="0.0006" stop-color="#3061A7"/>
<stop offset="0.0678" stop-color="#3B71C0"/>
<stop offset="0.1421" stop-color="#437FD4"/>
<stop offset="0.2268" stop-color="#4A88E3"/>
<stop offset="0.3294" stop-color="#4D8EEB"/>
<stop offset="0.5" stop-color="#4F90EE"/>
</linearGradient>
<linearGradient id="paint11_linear_3540_19298" x1="39.3124" y1="345.235" x2="42.6179" y2="331.871" gradientUnits="userSpaceOnUse">
<stop offset="0.4" stop-color="#0D213F"/>
<stop offset="0.6276" stop-color="#0E2342"/>
<stop offset="0.8103" stop-color="#12294C"/>
<stop offset="0.9769" stop-color="#18355D"/>
<stop offset="1" stop-color="#1A3760"/>
</linearGradient>
<linearGradient id="paint12_linear_3540_19298" x1="113" y1="353" x2="113" y2="325" gradientUnits="userSpaceOnUse">
<stop offset="0.0006" stop-color="#3061A7"/>
<stop offset="0.0678" stop-color="#3B71C0"/>
<stop offset="0.1421" stop-color="#437FD4"/>
<stop offset="0.2268" stop-color="#4A88E3"/>
<stop offset="0.3294" stop-color="#4D8EEB"/>
<stop offset="0.5" stop-color="#4F90EE"/>
</linearGradient>
<linearGradient id="paint13_linear_3540_19298" x1="185" y1="137" x2="185" y2="109" gradientUnits="userSpaceOnUse">
<stop offset="0.0006" stop-color="#7F669D"/>
<stop offset="0.0596" stop-color="#9277B2"/>
<stop offset="0.1354" stop-color="#A588C6"/>
<stop offset="0.2216" stop-color="#B294D5"/>
<stop offset="0.3262" stop-color="#B99ADD"/>
<stop offset="0.5" stop-color="#BC9DE0"/>
</linearGradient>
<linearGradient id="paint14_linear_3540_19298" x1="183.116" y1="130.078" x2="186.906" y2="115.979" gradientUnits="userSpaceOnUse">
<stop offset="0.4" stop-color="#2C1A42"/>
<stop offset="0.6221" stop-color="#2E1C45"/>
<stop offset="0.8003" stop-color="#37234F"/>
<stop offset="0.963" stop-color="#463060"/>
<stop offset="1" stop-color="#4B3465"/>
</linearGradient>
<linearGradient id="paint15_linear_3540_19298" x1="113" y1="64.9999" x2="113" y2="36.9999" gradientUnits="userSpaceOnUse">
<stop offset="0.0006" stop-color="#61A578"/>
<stop offset="0.0658" stop-color="#73BD8C"/>
<stop offset="0.1405" stop-color="#82D19D"/>
<stop offset="0.2255" stop-color="#8CE0A8"/>
<stop offset="0.3286" stop-color="#93E8AF"/>
<stop offset="0.5" stop-color="#95EBB2"/>
</linearGradient>
<linearGradient id="paint16_linear_3540_19298" x1="111.134" y1="59.8704" x2="115.638" y2="43.064" gradientUnits="userSpaceOnUse">
<stop offset="0.4" stop-color="#193322"/>
<stop offset="0.617" stop-color="#1B3624"/>
<stop offset="0.7912" stop-color="#21402C"/>
<stop offset="0.9502" stop-color="#2D5139"/>
<stop offset="1" stop-color="#32583F"/>
</linearGradient>
<linearGradient id="paint17_linear_3540_19298" x1="113" y1="137" x2="113" y2="109" gradientUnits="userSpaceOnUse">
<stop offset="0.0006" stop-color="#61A578"/>
<stop offset="0.0658" stop-color="#73BD8C"/>
<stop offset="0.1405" stop-color="#82D19D"/>
<stop offset="0.2255" stop-color="#8CE0A8"/>
<stop offset="0.3286" stop-color="#93E8AF"/>
<stop offset="0.5" stop-color="#95EBB2"/>
</linearGradient>
<linearGradient id="paint18_linear_3540_19298" x1="110.551" y1="132.138" x2="115.449" y2="113.861" gradientUnits="userSpaceOnUse">
<stop offset="0.4" stop-color="#193322"/>
<stop offset="0.617" stop-color="#1B3624"/>
<stop offset="0.7912" stop-color="#21402C"/>
<stop offset="0.9502" stop-color="#2D5139"/>
<stop offset="1" stop-color="#32583F"/>
</linearGradient>
<linearGradient id="paint19_linear_3540_19298" x1="113" y1="209" x2="113" y2="181" gradientUnits="userSpaceOnUse">
<stop stop-color="#61A578"/>
<stop offset="0.07" stop-color="#73BD8C"/>
<stop offset="0.14" stop-color="#82D19D"/>
<stop offset="0.23" stop-color="#8CE0A8"/>
<stop offset="0.33" stop-color="#93E8AF"/>
<stop offset="0.5" stop-color="#95EBB2"/>
</linearGradient>
<linearGradient id="paint20_linear_3540_19298" x1="110.17" y1="204.065" x2="114.854" y2="186.582" gradientUnits="userSpaceOnUse">
<stop offset="0.4" stop-color="#193322"/>
<stop offset="0.62" stop-color="#1B3624"/>
<stop offset="0.79" stop-color="#21402C"/>
<stop offset="0.95" stop-color="#2D5139"/>
<stop offset="1" stop-color="#32583F"/>
</linearGradient>
<linearGradient id="paint21_linear_3540_19298" x1="185" y1="64.9999" x2="185" y2="36.9999" gradientUnits="userSpaceOnUse">
<stop offset="0.0006" stop-color="#7F669D"/>
<stop offset="0.0596" stop-color="#9277B2"/>
<stop offset="0.1354" stop-color="#A588C6"/>
<stop offset="0.2216" stop-color="#B294D5"/>
<stop offset="0.3262" stop-color="#B99ADD"/>
<stop offset="0.5" stop-color="#BC9DE0"/>
</linearGradient>
<linearGradient id="paint22_linear_3540_19298" x1="183.114" y1="58.0392" x2="186.886" y2="43.9601" gradientUnits="userSpaceOnUse">
<stop offset="0.4" stop-color="#2C1A42"/>
<stop offset="0.6221" stop-color="#2E1C45"/>
<stop offset="0.8003" stop-color="#37234F"/>
<stop offset="0.963" stop-color="#463060"/>
<stop offset="1" stop-color="#4B3465"/>
</linearGradient>
<linearGradient id="paint23_linear_3540_19298" x1="185" y1="281" x2="185" y2="253" gradientUnits="userSpaceOnUse">
<stop offset="0.0006" stop-color="#7F669D"/>
<stop offset="0.0596" stop-color="#9277B2"/>
<stop offset="0.1354" stop-color="#A588C6"/>
<stop offset="0.2216" stop-color="#B294D5"/>
<stop offset="0.3262" stop-color="#B99ADD"/>
<stop offset="0.5" stop-color="#BC9DE0"/>
</linearGradient>
<linearGradient id="paint24_linear_3540_19298" x1="182.763" y1="274.858" x2="187.33" y2="257.814" gradientUnits="userSpaceOnUse">
<stop offset="0.4" stop-color="#2C1A42"/>
<stop offset="0.6221" stop-color="#2E1C45"/>
<stop offset="0.8003" stop-color="#37234F"/>
<stop offset="0.963" stop-color="#463060"/>
<stop offset="1" stop-color="#4B3465"/>
</linearGradient>
<linearGradient id="paint25_linear_3540_19298" x1="257" y1="64.9999" x2="257" y2="36.9999" gradientUnits="userSpaceOnUse">
<stop offset="0.0006" stop-color="#A9733B"/>
<stop offset="0.0045" stop-color="#AA743B"/>
<stop offset="0.0717" stop-color="#C48849"/>
<stop offset="0.1453" stop-color="#D89753"/>
<stop offset="0.2292" stop-color="#E7A25B"/>
<stop offset="0.3309" stop-color="#EFA95F"/>
<stop offset="0.5" stop-color="#F2AB61"/>
</linearGradient>
<linearGradient id="paint26_linear_3540_19298" x1="255.241" y1="57.064" x2="258.564" y2="44.663" gradientUnits="userSpaceOnUse">
<stop offset="0.4" stop-color="#342310"/>
<stop offset="0.6123" stop-color="#372511"/>
<stop offset="0.7828" stop-color="#412C15"/>
<stop offset="0.9383" stop-color="#52371C"/>
<stop offset="1" stop-color="#5B3E20"/>
</linearGradient>
<linearGradient id="paint27_linear_3540_19298" x1="257" y1="137" x2="257" y2="109" gradientUnits="userSpaceOnUse">
<stop offset="0.0006" stop-color="#A9733B"/>
<stop offset="0.0045" stop-color="#AA743B"/>
<stop offset="0.0717" stop-color="#C48849"/>
<stop offset="0.1453" stop-color="#D89753"/>
<stop offset="0.2292" stop-color="#E7A25B"/>
<stop offset="0.3309" stop-color="#EFA95F"/>
<stop offset="0.5" stop-color="#F2AB61"/>
</linearGradient>
<linearGradient id="paint28_linear_3540_19298" x1="255.354" y1="131.513" x2="261.127" y2="116.195" gradientUnits="userSpaceOnUse">
<stop offset="0.4" stop-color="#342310"/>
<stop offset="0.6123" stop-color="#372511"/>
<stop offset="0.7828" stop-color="#412C15"/>
<stop offset="0.9383" stop-color="#52371C"/>
<stop offset="1" stop-color="#5B3E20"/>
</linearGradient>
<linearGradient id="paint29_linear_3540_19298" x1="185" y1="209" x2="185" y2="181" gradientUnits="userSpaceOnUse">
<stop offset="0.0006" stop-color="#7F669D"/>
<stop offset="0.0596" stop-color="#9277B2"/>
<stop offset="0.1354" stop-color="#A588C6"/>
<stop offset="0.2216" stop-color="#B294D5"/>
<stop offset="0.3262" stop-color="#B99ADD"/>
<stop offset="0.5" stop-color="#BC9DE0"/>
</linearGradient>
<linearGradient id="paint30_linear_3540_19298" x1="182.697" y1="202.741" x2="186.249" y2="187.59" gradientUnits="userSpaceOnUse">
<stop offset="0.4" stop-color="#2C1A42"/>
<stop offset="0.6221" stop-color="#2E1C45"/>
<stop offset="0.8003" stop-color="#37234F"/>
<stop offset="0.963" stop-color="#463060"/>
<stop offset="1" stop-color="#4B3465"/>
</linearGradient>
</defs>
</svg>
